<?xml version="1.0"?>
<svg xmlns="http://www.w3.org/2000/svg" height="512px" viewBox="0 0 480 480" width="512px" class=""><g><path d="m472 240c0 128.128906-103.871094 232-232 232s-232-103.871094-232-232 103.871094-232 232-232 232 103.871094 232 232zm0 0" fill="#00b6bd" data-original="#00B6BD" class="" style="fill:#DDE2E3" data-old_color="#00B6BD"/><path d="m109.894531 370.105469 84.847657-28.28125-56.566407-56.566407zm0 0" fill="#8b5e3c" data-original="#8B5E3C" class="active-path" style="fill:#000000" data-old_color="#8B5E3C"/><path d="m370.105469 109.894531c-15.621094-15.621093-40.949219-15.621093-56.570313 0l-16.96875 16.96875 56.570313 56.570313-56.570313-56.570313-158.398437 158.402344 56.566406 56.566406 175.363281-175.359375c15.617188-15.621094 15.617188-40.949218 0-56.570312zm0 0" fill="#a97c50" data-original="#A97C50" class="" style="fill:#000000" data-old_color="#A97C50"/><g fill="#231f20"><path d="m240 0c-132.546875 0-240 107.453125-240 240s107.453125 240 240 240 240-107.453125 240-240c-.148438-132.484375-107.515625-239.851562-240-240zm0 464c-123.710938 0-224-100.289062-224-224s100.289062-224 224-224 224 100.289062 224 224c-.140625 123.652344-100.347656 223.859375-224 224zm0 0" data-original="#000000" class="" style="fill:#DDE2E3" data-old_color="#000000"/><path d="m341.824219 90.175781c-12.738281-.035156-24.960938 5.027344-33.945313 14.054688l-176.679687 176.707031-33.960938 101.824219 101.824219-33.960938 176.707031-176.679687c13.730469-13.730469 17.835938-34.375 10.40625-52.316406-7.429687-17.9375-24.9375-29.632813-44.351562-29.628907zm-192.335938 195.082031 147.078125-147.082031 45.257813 45.257813-147.082031 147.078125zm-7.816406 14.804688 38.265625 38.265625-57.402344 19.136719zm222.785156-139.261719-11.3125 11.3125-45.265625-45.257812 11.320313-11.3125c12.496093-12.496094 32.757812-12.496094 45.257812 0 12.496094 12.5 12.496094 32.761719 0 45.257812zm0 0" data-original="#000000" class="" style="fill:#DDE2E3" data-old_color="#000000"/></g></g> </svg>
