<?xml version="1.0"?>
<svg xmlns="http://www.w3.org/2000/svg" xmlns:xlink="http://www.w3.org/1999/xlink" version="1.1" id="Layer_1" x="0px" y="0px" viewBox="0 0 504.123 504.123" style="enable-background:new 0 0 504.123 504.123;" xml:space="preserve" width="512px" height="512px" class=""><g><circle style="fill:#DDE2E3" cx="252.062" cy="252.062" r="252.062" data-original="#99A8C1" class="" data-old_color="#99A8C1"/><path style="fill:#DDE2E3" d="M73.83,73.823c98.43-98.43,258.032-98.43,356.462,0c98.43,98.438,98.446,258.032,0,356.478" data-original="#70869B" class="" data-old_color="#70869B"/><path style="fill:#3C455C" d="M339.566,189.472c0,41.582-15.045,66.859-51.042,84.89c-8.57,4.293-11.185,21.858-11.185,27.861  c0,13.706-11.154,24.875-25.277,24.875c-13.722,0-24.875-11.169-24.875-24.875c0-5.585,0.859-53.618,38.999-72.893  c17.187-8.554,23.615-15.864,23.615-39.865c0-20.598-16.754-37.321-37.738-37.321c-20.598,0-37.305,16.723-37.305,37.321  c0,13.706-11.138,25.293-25.309,25.293c-13.737,0-24.891-11.587-24.891-25.293c0-48.049,39.495-87.489,87.505-87.489  C300.505,101.975,339.566,141.422,339.566,189.472z M277.339,377.281c0,13.706-11.154,24.86-25.277,24.86  c-13.722,0-24.875-11.154-24.875-24.86c0-14.155,11.154-25.309,24.875-25.309C266.185,351.98,277.339,363.134,277.339,377.281z" data-original="#1D2321" class="active-path" data-old_color="#000000"/><path style="fill:#3C455C" d="M252.062,101.975c-40.424,0-74.705,28.002-84.567,65.512l39.834,39.834  c4.6-4.616,7.428-10.965,7.428-17.857c0-20.598,16.707-37.321,37.305-37.321c20.984,0,37.738,16.723,37.738,37.321  c0,24.001-6.428,31.311-23.615,39.865c-8.539,4.317-15.132,10.114-20.338,16.518l36.139,36.139c1.646-3.356,3.749-6.223,6.538-7.625  c35.998-18.03,51.042-43.307,51.042-84.89C339.566,141.422,300.505,101.975,252.062,101.975z" data-original="#363D3B" class="" data-old_color="#000000"/></g> </svg>
